HIERARCHY
ROOT mixamorig:Hips
{
	OFFSET -0.000008 104.274872 1.554316
	CHANNELS 6 Xposition Yposition Zposition Xrotation Yrotation Zrotation
	JOINT mixamorig:Spine
	{
		OFFSET -0.000005 10.181595 0.131519
		CHANNELS 6 Xposition Yposition Zposition Xrotation Yrotation Zrotation
		JOINT mixamorig:Spine1
		{
			OFFSET -0.000000 9.893959 -1.470707
			CHANNELS 6 Xposition Yposition Zposition Xrotation Yrotation Zrotation
			JOINT mixamorig:Spine2
			{
				OFFSET -0.000000 9.220757 -1.370641
				CHANNELS 6 Xposition Yposition Zposition Xrotation Yrotation Zrotation
				JOINT mixamorig:Neck
				{
					OFFSET 0.000001 16.740417 -2.049036
					CHANNELS 6 Xposition Yposition Zposition Xrotation Yrotation Zrotation
					JOINT mixamorig:Head
					{
						OFFSET 0.000000 9.617874 1.685006
						CHANNELS 6 Xposition Yposition Zposition Xrotation Yrotation Zrotation
						JOINT mixamorig:HeadTop_End
						{
							OFFSET 0.000002 22.037354 7.501101
							CHANNELS 6 Xposition Yposition Zposition Xrotation Yrotation Zrotation
							End Site
							{
								OFFSET 0.000168 2310.654297 -282.823242
							}
						}
					}
				}
				JOINT mixamorig:RightShoulder
				{
					OFFSET -4.569970 11.014908 -2.160885
					CHANNELS 6 Xposition Yposition Zposition Xrotation Yrotation Zrotation
					JOINT mixamorig:RightArm
					{
						OFFSET -10.592851 -0.524811 -2.232101
						CHANNELS 6 Xposition Yposition Zposition Xrotation Yrotation Zrotation
						JOINT mixamorig:RightForeArm
						{
							OFFSET -27.841511 0.000031 -0.000004
							CHANNELS 6 Xposition Yposition Zposition Xrotation Yrotation Zrotation
							JOINT mixamorig:RightHand
							{
								OFFSET -28.328831 -0.000015 0.000015
								CHANNELS 6 Xposition Yposition Zposition Xrotation Yrotation Zrotation
								JOINT mixamorig:RightHandThumb1
								{
									OFFSET -2.464806 -1.573990 2.681852
									CHANNELS 6 Xposition Yposition Zposition Xrotation Yrotation Zrotation
									JOINT mixamorig:RightHandThumb2
									{
										OFFSET -3.215179 -1.872803 1.924282
										CHANNELS 6 Xposition Yposition Zposition Xrotation Yrotation Zrotation
										JOINT mixamorig:RightHandThumb3
										{
											OFFSET -2.654831 -1.527969 1.512609
											CHANNELS 6 Xposition Yposition Zposition Xrotation Yrotation Zrotation
											JOINT mixamorig:RightHandThumb4
											{
												OFFSET -2.018814 -1.152008 1.108052
												CHANNELS 6 Xposition Yposition Zposition Xrotation Yrotation Zrotation
												End Site
												{
													OFFSET -188.809540 -114.533607 132.431396
												}
											}
										}
									}
								}
								JOINT mixamorig:RightHandIndex1
								{
									OFFSET -9.108284 -0.517868 2.259835
									CHANNELS 6 Xposition Yposition Zposition Xrotation Yrotation Zrotation
									JOINT mixamorig:RightHandIndex2
									{
										OFFSET -3.699989 0.000000 0.001215
										CHANNELS 6 Xposition Yposition Zposition Xrotation Yrotation Zrotation
										JOINT mixamorig:RightHandIndex3
										{
											OFFSET -2.850006 0.000031 -0.000522
											CHANNELS 6 Xposition Yposition Zposition Xrotation Yrotation Zrotation
											JOINT mixamorig:RightHandIndex4
											{
												OFFSET -2.772186 -0.000015 -0.000020
												CHANNELS 6 Xposition Yposition Zposition Xrotation Yrotation Zrotation
												End Site
												{
													OFFSET -277.218445 0.000000 -0.050231
												}
											}
										}
									}
								}
								JOINT mixamorig:RightHandMiddle1
								{
									OFFSET -9.532516 -0.000031 -0.000023
									CHANNELS 6 Xposition Yposition Zposition Xrotation Yrotation Zrotation
									JOINT mixamorig:RightHandMiddle2
									{
										OFFSET -3.700005 -0.000015 0.003713
										CHANNELS 6 Xposition Yposition Zposition Xrotation Yrotation Zrotation
										JOINT mixamorig:RightHandMiddle3
										{
											OFFSET -2.949974 0.000015 -0.002054
											CHANNELS 6 Xposition Yposition Zposition Xrotation Yrotation Zrotation
											JOINT mixamorig:RightHandMiddle4
											{
												OFFSET -2.946640 0.000000 -0.000156
												CHANNELS 6 Xposition Yposition Zposition Xrotation Yrotation Zrotation
												End Site
												{
													OFFSET -294.664337 0.000000 -0.113670
												}
											}
										}
									}
								}
								JOINT mixamorig:RightHandRing1
								{
									OFFSET -9.103600 -0.043076 -1.865134
									CHANNELS 6 Xposition Yposition Zposition Xrotation Yrotation Zrotation
									JOINT mixamorig:RightHandRing2
									{
										OFFSET -3.379288 0.000000 -0.001055
										CHANNELS 6 Xposition Yposition Zposition Xrotation Yrotation Zrotation
										JOINT mixamorig:RightHandRing3
										{
											OFFSET -2.889687 -0.000015 0.000379
											CHANNELS 6 Xposition Yposition Zposition Xrotation Yrotation Zrotation
											JOINT mixamorig:RightHandRing4
											{
												OFFSET -2.638809 -0.000015 0.000941
												CHANNELS 6 Xposition Yposition Zposition Xrotation Yrotation Zrotation
												End Site
												{
													OFFSET -263.880371 0.000000 0.516020
												}
											}
										}
									}
								}
								JOINT mixamorig:RightHandPinky1
								{
									OFFSET -8.076683 -0.486710 -3.806280
									CHANNELS 6 Xposition Yposition Zposition Xrotation Yrotation Zrotation
									JOINT mixamorig:RightHandPinky2
									{
										OFFSET -3.600014 -0.000015 -0.003747
										CHANNELS 6 Xposition Yposition Zposition Xrotation Yrotation Zrotation
										JOINT mixamorig:RightHandPinky3
										{
											OFFSET -2.099983 0.000000 -0.005739
											CHANNELS 6 Xposition Yposition Zposition Xrotation Yrotation Zrotation
											JOINT mixamorig:RightHandPinky4
											{
												OFFSET -2.115768 -0.000031 -0.003680
												CHANNELS 6 Xposition Yposition Zposition Xrotation Yrotation Zrotation
												End Site
												{
													OFFSET -211.577087 0.000000 -0.350686
												}
											}
										}
									}
								}
							}
						}
					}
				}
				JOINT mixamorig:LeftShoulder
				{
					OFFSET 4.570447 11.014725 -2.160855
					CHANNELS 6 Xposition Yposition Zposition Xrotation Yrotation Zrotation
					JOINT mixamorig:LeftArm
					{
						OFFSET 10.592371 -0.524597 -2.232119
						CHANNELS 6 Xposition Yposition Zposition Xrotation Yrotation Zrotation
						JOINT mixamorig:LeftForeArm
						{
							OFFSET 27.841532 -0.000031 0.000026
							CHANNELS 6 Xposition Yposition Zposition Xrotation Yrotation Zrotation
							JOINT mixamorig:LeftHand
							{
								OFFSET 28.328846 -0.000061 0.000022
								CHANNELS 6 Xposition Yposition Zposition Xrotation Yrotation Zrotation
								JOINT mixamorig:LeftHandThumb1
								{
									OFFSET 2.466141 -1.576172 2.681732
									CHANNELS 6 Xposition Yposition Zposition Xrotation Yrotation Zrotation
									JOINT mixamorig:LeftHandThumb2
									{
										OFFSET 3.217812 -1.872070 1.916482
										CHANNELS 6 Xposition Yposition Zposition Xrotation Yrotation Zrotation
										JOINT mixamorig:LeftHandThumb3
										{
											OFFSET 2.656029 -1.528778 1.514513
											CHANNELS 6 Xposition Yposition Zposition Xrotation Yrotation Zrotation
											JOINT mixamorig:LeftHandThumb4
											{
												OFFSET 2.020889 -1.154053 1.115139
												CHANNELS 6 Xposition Yposition Zposition Xrotation Yrotation Zrotation
												End Site
												{
													OFFSET 190.885437 -115.081749 130.048782
												}
											}
										}
									}
								}
								JOINT mixamorig:LeftHandIndex1
								{
									OFFSET 9.109314 -0.518021 2.259871
									CHANNELS 6 Xposition Yposition Zposition Xrotation Yrotation Zrotation
									JOINT mixamorig:LeftHandIndex2
									{
										OFFSET 3.699989 0.000000 -0.000322
										CHANNELS 6 Xposition Yposition Zposition Xrotation Yrotation Zrotation
										JOINT mixamorig:LeftHandIndex3
										{
											OFFSET 2.850006 0.000000 0.000352
											CHANNELS 6 Xposition Yposition Zposition Xrotation Yrotation Zrotation
											JOINT mixamorig:LeftHandIndex4
											{
												OFFSET 2.774864 -0.000031 -0.000027
												CHANNELS 6 Xposition Yposition Zposition Xrotation Yrotation Zrotation
												End Site
												{
													OFFSET 277.486267 0.000000 -0.009857
												}
											}
										}
									}
								}
								JOINT mixamorig:LeftHandMiddle1
								{
									OFFSET 9.533394 0.000061 0.000044
									CHANNELS 6 Xposition Yposition Zposition Xrotation Yrotation Zrotation
									JOINT mixamorig:LeftHandMiddle2
									{
										OFFSET 3.699989 -0.000015 -0.000231
										CHANNELS 6 Xposition Yposition Zposition Xrotation Yrotation Zrotation
										JOINT mixamorig:LeftHandMiddle3
										{
											OFFSET 2.949997 -0.000015 -0.000059
											CHANNELS 6 Xposition Yposition Zposition Xrotation Yrotation Zrotation
											JOINT mixamorig:LeftHandMiddle4
											{
												OFFSET 2.952896 0.000031 0.000063
												CHANNELS 6 Xposition Yposition Zposition Xrotation Yrotation Zrotation
												End Site
												{
													OFFSET 295.289337 0.000000 0.022810
												}
											}
										}
									}
								}
								JOINT mixamorig:LeftHandRing1
								{
									OFFSET 9.104523 -0.042999 -1.865074
									CHANNELS 6 Xposition Yposition Zposition Xrotation Yrotation Zrotation
									JOINT mixamorig:LeftHandRing2
									{
										OFFSET 3.150009 -0.000031 0.000043
										CHANNELS 6 Xposition Yposition Zposition Xrotation Yrotation Zrotation
										JOINT mixamorig:LeftHandRing3
										{
											OFFSET 2.949982 -0.000015 0.000040
											CHANNELS 6 Xposition Yposition Zposition Xrotation Yrotation Zrotation
											JOINT mixamorig:LeftHandRing4
											{
												OFFSET 2.644348 0.000000 0.000057
												CHANNELS 6 Xposition Yposition Zposition Xrotation Yrotation Zrotation
												End Site
												{
													OFFSET 264.434631 0.000000 0.012105
												}
											}
										}
									}
								}
								JOINT mixamorig:LeftHandPinky1
								{
									OFFSET 8.077789 -0.486847 -3.806259
									CHANNELS 6 Xposition Yposition Zposition Xrotation Yrotation Zrotation
									JOINT mixamorig:LeftHandPinky2
									{
										OFFSET 3.599953 0.000031 0.014727
										CHANNELS 6 Xposition Yposition Zposition Xrotation Yrotation Zrotation
										JOINT mixamorig:LeftHandPinky3
										{
											OFFSET 2.100021 0.000015 0.007705
											CHANNELS 6 Xposition Yposition Zposition Xrotation Yrotation Zrotation
											JOINT mixamorig:LeftHandPinky4
											{
												OFFSET 2.125504 0.000031 0.007517
												CHANNELS 6 Xposition Yposition Zposition Xrotation Yrotation Zrotation
												End Site
												{
													OFFSET 212.550781 0.000000 0.625752
												}
											}
										}
									}
								}
							}
						}
					}
				}
			}
		}
	}
	JOINT mixamorig:RightUpLeg
	{
		OFFSET -8.207787 -6.751648 -1.599560
		CHANNELS 6 Xposition Yposition Zposition Xrotation Yrotation Zrotation
		JOINT mixamorig:RightLeg
		{
			OFFSET -0.000002 -44.370117 0.345942
			CHANNELS 6 Xposition Yposition Zposition Xrotation Yrotation Zrotation
			JOINT mixamorig:RightFoot
			{
				OFFSET 0.000003 -44.423679 -3.043532
				CHANNELS 6 Xposition Yposition Zposition Xrotation Yrotation Zrotation
				JOINT mixamorig:RightToeBase
				{
					OFFSET -0.000002 -8.728671 10.710558
					CHANNELS 6 Xposition Yposition Zposition Xrotation Yrotation Zrotation
					JOINT mixamorig:RightToe_End
					{
						OFFSET -0.000001 -0.000679 9.278119
						CHANNELS 6 Xposition Yposition Zposition Xrotation Yrotation Zrotation
						End Site
						{
							OFFSET 0.000000 -0.067690 927.812134
						}
					}
				}
			}
		}
	}
	JOINT mixamorig:LeftUpLeg
	{
		OFFSET 8.207793 -6.751686 -1.599556
		CHANNELS 6 Xposition Yposition Zposition Xrotation Yrotation Zrotation
		JOINT mixamorig:LeftLeg
		{
			OFFSET -0.000004 -44.370014 0.346954
			CHANNELS 6 Xposition Yposition Zposition Xrotation Yrotation Zrotation
			JOINT mixamorig:LeftFoot
			{
				OFFSET -0.000001 -44.423672 -3.044401
				CHANNELS 6 Xposition Yposition Zposition Xrotation Yrotation Zrotation
				JOINT mixamorig:LeftToeBase
				{
					OFFSET -0.000002 -8.728669 10.710558
					CHANNELS 6 Xposition Yposition Zposition Xrotation Yrotation Zrotation
					JOINT mixamorig:LeftToe_End
					{
						OFFSET -0.000003 -0.000679 9.278133
						CHANNELS 6 Xposition Yposition Zposition Xrotation Yrotation Zrotation
						End Site
						{
							OFFSET 0.000000 -0.068021 927.813477
						}
					}
				}
			}
		}
	}
}
MOTION
Frames: 3
Frame Time: 0.033333
0.000006 104.270477 1.554256 0.000010 0.000003 -0.000113 -0.000005 10.181587 0.131522 0.000001 -0.000003 0.000084 -0.000000 9.893967 -1.470711 0.000001 0.000000 -0.000000 -0.000000 9.220802 -1.370642 0.000000 -0.000000 -0.000000 0.000001 16.740433 -2.049030 0.000000 -0.000000 -0.000000 0.000000 9.617859 1.685014 0.000000 0.000000 0.000000 0.000002 22.037384 7.501101 0.000000 -0.000000 0.000000 -4.569968 11.014880 -2.160881 0.000008 0.000001 -0.000038 -10.592875 -0.524759 -2.231912 75.905108 27.060656 -21.260012 -27.841520 0.000010 0.000554 -55.649014 110.293669 74.315791 -28.328825 0.000020 0.000025 -0.000318 -0.000048 0.000009 -2.464436 -1.573939 2.682375 -25.862335 -151.193928 33.209066 -3.215226 -1.872513 1.924623 150.739775 35.371521 34.422617 -2.654942 -1.527906 1.513112 152.373871 24.588396 -45.775296 -2.018826 -1.152012 1.108065 -0.000006 0.000001 0.000002 -9.108404 -0.517569 2.260135 99.206592 19.690076 -23.108902 -3.700068 0.000302 0.001527 95.122419 16.477543 -17.969929 -2.850081 0.000363 -0.000272 93.967700 12.089396 -12.948843 -2.772162 -0.000016 -0.000020 -0.000004 0.000000 -0.000001 -9.532597 0.000268 0.000253 94.876874 16.574422 -18.180958 -3.700081 0.000326 0.003967 92.767383 11.467982 -11.933084 -2.950068 0.000320 -0.001809 93.268883 10.556570 -11.165477 -2.946640 0.000014 -0.000153 0.000001 -0.000000 -0.000000 -9.103705 -0.042753 -1.864846 96.710363 17.409792 -19.488598 -3.379312 0.000320 -0.000812 94.617880 7.618316 -8.274660 -2.889746 0.000352 0.000654 96.946954 4.933618 -5.620275 -2.638814 -0.000018 0.000942 -0.000004 -0.000000 0.000002 -8.076750 -0.486384 -3.805994 94.475709 16.862827 -18.050228 -3.600033 0.000288 -0.003512 94.511704 6.327459 -6.472098 -2.100008 0.000338 -0.005483 94.756266 3.342744 -3.401881 -2.115761 -0.000044 -0.003678 -0.000003 -0.000001 -0.000003 4.570446 11.014691 -2.160851 -0.000018 0.000010 -0.000021 10.592386 -0.524477 -2.232354 76.648827 -6.912741 5.466728 27.841822 0.000071 -0.000212 96.450017 -69.628608 75.796891 28.328833 -0.000029 0.000026 0.000021 -0.000089 -0.000000 2.466236 -1.576091 2.681857 0.582553 161.023595 -84.177369 3.217830 -1.871758 1.916381 164.794884 -27.311218 19.117698 2.656115 -1.528688 1.514488 133.096795 -29.821781 56.236649 2.020899 -1.154066 1.115156 -0.000003 0.000009 0.000002 9.109357 -0.517873 2.259750 79.200278 -17.355963 14.382336 3.700053 0.000129 -0.000459 78.321690 -14.933440 12.199809 2.850047 0.000160 0.000219 76.555697 -12.876801 10.176505 2.774896 -0.000029 -0.000028 -0.000002 0.000002 -0.000000 9.533455 0.000185 -0.000077 78.083132 -16.212241 13.170657 3.700031 0.000153 -0.000375 80.513724 -13.907727 11.790661 2.950072 0.000144 -0.000194 79.804081 -17.083434 14.319414 2.952878 -0.000017 0.000069 0.000000 -0.000000 -0.000002 9.104581 -0.042861 -1.865237 74.944176 -14.639489 11.248643 3.150050 0.000185 -0.000087 81.352184 -11.850003 10.195060 2.950022 0.000157 -0.000090 83.525366 -13.764786 12.304598 2.644333 0.000029 0.000061 -0.000000 -0.000001 0.000000 8.077815 -0.486759 -3.806412 66.382711 -15.701666 10.700098 3.600000 0.000156 0.014564 68.835070 -12.812602 9.151717 2.100055 0.000160 0.007554 73.508272 -12.601729 9.795132 2.125500 -0.000016 0.007509 -0.000004 0.000002 0.000001 -8.207786 -6.751667 -1.599560 -0.077001 -0.000003 0.000080 -0.000002 -44.370110 0.345938 0.153719 -0.000000 -0.000000 0.000000 -44.423679 -3.043532 -0.076700 0.000000 -0.000002 -0.000006 -8.728667 10.710559 -0.000009 -0.000000 -0.000000 -0.000001 -0.000679 9.278123 0.000000 -0.000000 -0.000000 8.207792 -6.751710 -1.599556 -0.074518 -0.000003 0.000081 -0.000002 -44.370014 0.346960 0.148822 0.000002 0.000000 -0.000001 -44.423664 -3.044403 -0.074314 0.000000 -0.000002 -0.000004 -8.728671 10.710558 0.000007 -0.000000 -0.000000 0.000000 -0.000680 9.278137 -0.000000 0.000000 -0.000001 
0.000006 104.270477 1.554256 0.000010 0.000003 -0.000113 -0.000005 10.181587 0.131522 0.000001 -0.000003 0.000084 -0.000000 9.893967 -1.470711 0.000001 0.000000 -0.000000 -0.000000 9.220802 -1.370642 0.000000 -0.000000 -0.000000 0.000001 16.740433 -2.049030 0.000000 -0.000000 -0.000000 0.000000 9.617859 1.685014 0.000000 0.000000 0.000000 0.000002 22.037384 7.501101 0.000000 -0.000000 0.000000 -4.569968 11.014880 -2.160881 0.000008 0.000001 -0.000038 -10.592872 -0.524782 -2.231881 76.585689 32.958422 -26.293095 -27.841518 0.000025 0.000534 -53.071454 106.596222 67.635989 -28.328798 0.000021 0.000028 -0.000320 -0.000043 0.000007 -2.464415 -1.573924 2.682364 -33.515479 -150.313749 18.250930 -3.215224 -1.872486 1.924601 147.358408 34.565002 37.952059 -2.654962 -1.527885 1.513081 148.866145 26.679173 -35.973517 -2.018819 -1.151997 1.108065 -0.000001 -0.000003 0.000002 -9.108407 -0.517559 2.260113 97.517575 17.072457 -19.483811 -3.700061 0.000317 0.001505 94.147751 12.987992 -13.929528 -2.850081 0.000365 -0.000280 92.086147 10.317913 -10.697475 -2.772164 -0.000000 -0.000021 -0.000002 0.000000 -0.000003 -9.532604 0.000263 0.000244 92.982603 16.353717 -17.365356 -3.700064 0.000342 0.003942 92.295581 10.296784 -10.618988 -2.950060 0.000345 -0.001815 94.427092 10.484713 -11.314990 -2.946628 0.000001 -0.000157 -0.000000 -0.000002 0.000001 -9.103710 -0.042752 -1.864858 94.352008 17.294128 -18.589067 -3.379312 0.000340 -0.000808 94.014883 7.392942 -7.946440 -2.889724 0.000367 0.000657 100.230089 5.382221 -6.491786 -2.638808 -0.000015 0.000941 0.000000 -0.000000 -0.000000 -8.076768 -0.486380 -3.806016 90.886752 17.510203 -17.625616 -3.600044 0.000295 -0.003501 93.809677 7.177141 -7.296638 -2.100009 0.000328 -0.005462 96.402362 3.892426 -4.114085 -2.115796 -0.000053 -0.003675 0.000002 -0.000002 -0.000007 4.570446 11.014691 -2.160851 -0.000018 0.000010 -0.000021 10.592393 -0.524471 -2.232340 76.164143 -9.525216 7.470657 27.841820 0.000056 -0.000218 96.298584 -71.694071 77.779619 28.328833 -0.000029 0.000023 0.000019 -0.000088 -0.000000 2.466238 -1.575897 2.681785 17.554708 189.637170 -136.937493 3.217873 -1.871912 1.916475 166.007925 -14.448077 62.320579 2.656106 -1.528696 1.514520 137.085735 -28.184274 68.308005 2.020887 -1.154069 1.115144 0.000000 0.000002 0.000004 9.109375 -0.517889 2.259746 80.204548 -22.651438 19.136810 3.700040 0.000129 -0.000460 77.529819 -13.746568 11.071293 2.850060 0.000168 0.000213 76.342206 -9.656638 7.597005 2.774893 -0.000035 -0.000019 -0.000001 -0.000000 0.000001 9.533455 0.000188 -0.000082 77.911961 -21.325490 17.303248 3.700028 0.000159 -0.000384 80.747726 -11.280095 9.597570 2.950049 0.000166 -0.000213 81.808031 -10.402931 9.021242 2.952866 -0.000016 0.000058 0.000000 -0.000002 -0.000000 9.104583 -0.042870 -1.865218 77.139535 -20.422397 16.349811 3.150054 0.000178 -0.000092 81.935072 -13.344898 11.601764 2.950029 0.000169 -0.000079 82.701761 -10.513352 9.260130 2.644319 0.000032 0.000052 -0.000001 -0.000001 -0.000000 8.077841 -0.486755 -3.806395 69.738629 -21.339640 15.399005 3.600009 0.000126 0.014577 69.407563 -18.036544 12.924430 2.100024 0.000157 0.007537 71.364070 -13.130789 9.805153 2.125489 -0.000013 0.007515 -0.000002 -0.000000 0.000003 -8.207786 -6.751667 -1.599560 -0.077001 -0.000003 0.000080 -0.000002 -44.370110 0.345938 0.153719 -0.000000 -0.000000 0.000000 -44.423679 -3.043532 -0.076700 0.000000 -0.000002 -0.000006 -8.728667 10.710559 -0.000009 -0.000000 -0.000000 -0.000001 -0.000679 9.278123 0.000000 -0.000000 -0.000000 8.207792 -6.751710 -1.599556 -0.074518 -0.000003 0.000081 -0.000002 -44.370014 0.346960 0.148822 0.000002 0.000000 -0.000001 -44.423664 -3.044403 -0.074314 0.000000 -0.000002 -0.000004 -8.728671 10.710558 0.000007 -0.000000 -0.000000 0.000000 -0.000680 9.278137 -0.000000 0.000000 -0.000001 
0.000006 104.270477 1.554256 0.000010 0.000003 -0.000113 -0.000005 10.181587 0.131522 0.000001 -0.000003 0.000084 -0.000000 9.893967 -1.470711 0.000001 0.000000 -0.000000 -0.000000 9.220802 -1.370642 0.000000 -0.000000 -0.000000 0.000001 16.740433 -2.049030 0.000000 -0.000000 -0.000000 0.000000 9.617859 1.685014 0.000000 0.000000 0.000000 0.000002 22.037384 7.501101 0.000000 -0.000000 0.000000 -4.569968 11.014880 -2.160881 0.000008 0.000001 -0.000038 -10.592862 -0.524791 -2.231860 76.289695 39.013019 -31.094504 -27.841530 0.000016 0.000544 -51.823688 104.491082 64.204639 -28.328814 0.000023 0.000027 -0.000321 -0.000047 0.000010 -2.464383 -1.573887 2.682360 -36.776747 -151.857194 12.466763 -3.215235 -1.872485 1.924611 147.382232 34.434651 36.819791 -2.654938 -1.527862 1.513070 148.682167 26.741020 -35.728272 -2.018846 -1.152014 1.108063 -0.000004 -0.000004 0.000000 -9.108386 -0.517560 2.260119 97.113030 16.842229 -19.088955 -3.700078 0.000320 0.001506 93.881244 13.257890 -14.153544 -2.850103 0.000347 -0.000280 92.058492 10.673327 -11.060510 -2.772164 -0.000014 -0.000024 -0.000000 0.000000 0.000000 -9.532585 0.000265 0.000240 92.417288 16.109196 -16.942262 -3.700062 0.000331 0.003960 91.814401 10.791533 -11.040456 -2.950043 0.000343 -0.001806 94.504041 10.843196 -11.717372 -2.946619 0.000002 -0.000155 0.000001 0.000002 0.000003 -9.103692 -0.042759 -1.864875 93.749394 17.181556 -18.277677 -3.379324 0.000334 -0.000804 93.230921 7.800663 -8.269817 -2.889740 0.000363 0.000661 100.049595 5.672711 -6.817460 -2.638817 -0.000017 0.000943 0.000002 0.000000 0.000000 -8.076748 -0.486377 -3.805992 90.613838 17.385635 -17.417479 -3.600042 0.000278 -0.003501 93.122280 7.045281 -7.071193 -2.100007 0.000329 -0.005462 96.385478 3.698533 -3.896829 -2.115773 -0.000052 -0.003679 0.000002 -0.000003 -0.000004 4.570446 11.014691 -2.160851 -0.000018 0.000010 -0.000021 10.592424 -0.524460 -2.232369 75.785805 -19.591247 15.306217 27.841816 0.000062 -0.000214 96.841987 -74.244231 80.938281 28.328815 -0.000013 0.000022 0.000023 -0.000090 0.000000 2.466270 -1.575905 2.681795 19.286362 186.275829 -133.372913 3.217862 -1.871907 1.916453 163.753212 -16.281868 60.040341 2.656088 -1.528720 1.514516 130.701926 -31.082572 67.001000 2.020895 -1.154082 1.115138 -0.000001 0.000003 0.000004 9.109398 -0.517902 2.259753 76.151876 -24.647841 19.414176 3.700052 0.000118 -0.000467 75.805469 -16.065587 12.554027 2.850042 0.000160 0.000212 75.420916 -11.488406 8.893573 2.774889 -0.000015 -0.000023 0.000000 -0.000002 -0.000001 9.533480 0.000190 -0.000082 76.129862 -21.117978 16.602826 3.700033 0.000155 -0.000372 80.296380 -12.732767 10.750765 2.950057 0.000161 -0.000217 82.271725 -11.291115 9.872418 2.952866 -0.000045 0.000062 -0.000001 -0.000003 0.000000 9.104600 -0.042877 -1.865206 75.594457 -20.312122 15.821542 3.150046 0.000166 -0.000096 80.056866 -15.176800 12.771223 2.950023 0.000162 -0.000084 80.987609 -11.617193 9.930560 2.644339 0.000015 0.000060 0.000000 0.000001 0.000001 8.077857 -0.486762 -3.806412 69.174571 -21.010681 15.007978 3.600001 0.000134 0.014584 67.450290 -18.628238 12.866284 2.100037 0.000134 0.007565 69.319624 -13.669615 9.820611 2.125510 -0.000014 0.007515 -0.000002 0.000002 0.000000 -8.207786 -6.751667 -1.599560 -0.077001 -0.000003 0.000080 -0.000002 -44.370110 0.345938 0.153719 -0.000000 -0.000000 0.000000 -44.423679 -3.043532 -0.076700 0.000000 -0.000002 -0.000006 -8.728667 10.710559 -0.000009 -0.000000 -0.000000 -0.000001 -0.000679 9.278123 0.000000 -0.000000 -0.000000 8.207792 -6.751710 -1.599556 -0.074518 -0.000003 0.000081 -0.000002 -44.370014 0.346960 0.148822 0.000002 0.000000 -0.000001 -44.423664 -3.044403 -0.074314 0.000000 -0.000002 -0.000004 -8.728671 10.710558 0.000007 -0.000000 -0.000000 0.000000 -0.000680 9.278137 -0.000000 0.000000 -0.000001 
